<svg width="48" height="48" viewBox="0 0 48 48" fill="none" xmlns="http://www.w3.org/2000/svg">
<g clip-path="url(#clip0_98_184)">
<rect width="48" height="48" rx="12" fill="#E9E9E9"/>
<path d="M33.3347 17.8536C30.3754 11.2194 26.1311 10.4714 24.3789 10.9267C29.4409 0.780397 35.671 6.63406 39.2728 9.46333C42.8746 12.2926 37.8126 17.8536 37.8126 19.9024C37.8126 21.5414 40.2137 25.1381 41.4144 26.7316C39.9542 26.5365 36.294 24.4877 33.3347 17.8536Z" fill="#1676EF"/>
<path d="M8.96571 28.6828C11.0684 27.278 14.2881 23.0893 15.8132 21.6584C16.1266 22.9593 17.564 26.6731 19.3817 27.2194C16.8897 28.8584 10.9459 31.4145 6.92145 32.195C6.72676 31.6097 6.86304 30.0877 8.96571 28.6828Z" fill="#F98516"/>
<path d="M20.5828 48C26.8129 41.7561 31.6802 27.7073 32.459 21.4634C28.7924 21.4634 20.9722 23.0439 21.3616 28.1951C21.751 33.3463 13.4117 43.5447 9.19336 48H20.5828Z" fill="#232323"/>
<path d="M23.7963 29.6586C28.6349 29.6586 32.5574 25.7275 32.5574 20.8781C32.5574 16.0288 28.6349 12.0977 23.7963 12.0977C18.9576 12.0977 15.0352 16.0288 15.0352 20.8781C15.0352 25.7275 18.9576 29.6586 23.7963 29.6586Z" fill="#232323"/>
<path d="M24.8764 17.7559C22.7615 19.6444 19.9325 20.4842 18.8311 20.8778C19.4552 21.7721 20.7398 23.4928 23.2116 22.3412C25.4969 21.2766 25.2802 18.6859 24.8764 17.7559Z" fill="white"/>
</g>
<defs>
<clipPath id="clip0_98_184">
<rect width="48" height="48" rx="12" fill="white"/>
</clipPath>
</defs>
</svg>
