<svg width="27" height="24" viewBox="0 0 27 24" fill="none" xmlns="http://www.w3.org/2000/svg">
<path d="M24.3314 0.250065C23.9847 0.265362 23.6617 0.366356 23.3773 0.481315C23.1109 0.588476 22.093 1.02504 20.4898 1.71256C18.8852 2.40069 16.7604 3.3129 14.4939 4.28756C9.96096 6.2369 4.86469 8.43118 2.25436 9.55423C2.15621 9.59645 1.81371 9.70586 1.4502 9.98965C1.08668 10.2734 0.700195 10.8615 0.700195 11.5167C0.700195 12.0451 0.952001 12.57 1.26895 12.8834C1.58589 13.1968 1.92126 13.3516 2.20853 13.4688C3.25084 13.8941 6.4835 15.217 7.09395 15.4667C7.30878 16.1248 8.47885 19.7041 8.7502 20.5813C8.92907 21.1602 9.09934 21.5228 9.32103 21.8105C9.43187 21.9543 9.56072 22.0804 9.71686 22.1792C9.77927 22.2187 9.8477 22.2491 9.91686 22.2771L9.92103 22.2792C9.93696 22.2856 9.9507 22.2965 9.96686 22.3021C9.99735 22.3128 10.0177 22.3141 10.0585 22.323C10.221 22.3755 10.385 22.4084 10.5314 22.4084C11.1556 22.4084 11.5377 22.0646 11.5377 22.0646L11.5606 22.048L14.771 19.2709L18.6648 22.9542C18.7196 23.0318 19.2309 23.7334 20.3585 23.7334C21.0281 23.7334 21.5592 23.3974 21.9002 23.0396C22.2412 22.6819 22.4536 22.306 22.5439 21.8334V21.8313C22.6284 21.3847 26.2169 2.96256 26.2169 2.96256L26.2106 2.98756C26.3157 2.50808 26.3432 2.06155 26.2273 1.6209C26.1114 1.18025 25.806 0.758348 25.4273 0.531315C25.0486 0.304332 24.6782 0.234768 24.3314 0.250065ZM24.1314 2.47923C24.1263 2.51036 24.1353 2.49471 24.1273 2.53131L24.1252 2.54381L24.1231 2.55631C24.1231 2.55631 20.5791 20.7429 20.4481 21.4355C20.4577 21.3832 20.4139 21.4872 20.3689 21.5501C20.3054 21.5063 20.1752 21.4501 20.1752 21.4501L20.1544 21.4271L14.8356 16.3959L11.0752 19.6459L12.1939 15.1667C12.1939 15.1667 19.1872 7.92765 19.6085 7.50631C19.9477 7.16925 20.0189 7.05175 20.0189 6.93548C20.0189 6.77975 19.9378 6.66673 19.7564 6.66673C19.5932 6.66673 19.3738 6.8254 19.2564 6.90006C17.7278 7.87451 11.0168 11.7858 8.00853 13.5355C7.53046 13.3398 4.20917 11.9803 3.08353 11.5209C3.09205 11.5172 3.08925 11.5185 3.09811 11.5146C5.70912 10.3913 10.8033 8.19704 15.3356 6.24798C17.6018 5.27345 19.7281 4.36055 21.3314 3.67298C22.9101 2.996 24.007 2.53008 24.1314 2.47923Z" fill="#1F1F1F"/>
</svg>
