<svg width="27" height="22" viewBox="0 0 27 22" fill="none" xmlns="http://www.w3.org/2000/svg">
<path d="M26.2758 3.24792C25.9692 2.10125 25.0652 1.19725 23.9185 0.890586C21.8385 0.333252 13.4998 0.333252 13.4998 0.333252C13.4998 0.333252 5.16117 0.333252 3.08117 0.890586C1.9345 1.19725 1.0305 2.10125 0.723837 3.24792C0.166504 5.32792 0.166504 10.9999 0.166504 10.9999C0.166504 10.9999 0.166504 16.6719 0.723837 18.7519C1.0305 19.8986 1.9345 20.8026 3.08117 21.1093C5.16117 21.6666 13.4998 21.6666 13.4998 21.6666C13.4998 21.6666 21.8385 21.6666 23.9185 21.1093C25.0665 20.8026 25.9692 19.8986 26.2758 18.7519C26.8332 16.6719 26.8332 10.9999 26.8332 10.9999C26.8332 10.9999 26.8332 5.32792 26.2758 3.24792ZM10.8332 14.4639V7.53592C10.8332 7.02259 11.3892 6.70259 11.8332 6.95859L17.8332 10.4226C18.2772 10.6786 18.2772 11.3213 17.8332 11.5773L11.8332 15.0413C11.3892 15.2986 10.8332 14.9773 10.8332 14.4639Z" fill="#1F1F1F"/>
</svg>
