<svg width="27" height="26" viewBox="0 0 27 26" fill="none" xmlns="http://www.w3.org/2000/svg">
<path d="M8.16478 0.199951C4.04851 0.199951 0.700195 3.55137 0.700195 7.6687V18.3354C0.700195 22.4516 4.05161 25.8 8.16895 25.8H18.8356C22.9519 25.8 26.3002 22.4485 26.3002 18.3312V7.66454C26.3002 3.54827 22.9488 0.199951 18.8314 0.199951H8.16478ZM20.9669 4.46662C21.5557 4.46662 22.0335 4.94448 22.0335 5.53328C22.0335 6.12208 21.5557 6.59995 20.9669 6.59995C20.3781 6.59995 19.9002 6.12208 19.9002 5.53328C19.9002 4.94448 20.3781 4.46662 20.9669 4.46662ZM13.5002 6.59995C17.0298 6.59995 19.9002 9.47035 19.9002 13C19.9002 16.5296 17.0298 19.4 13.5002 19.4C9.9706 19.4 7.1002 16.5296 7.1002 13C7.1002 9.47035 9.9706 6.59995 13.5002 6.59995ZM13.5002 8.73328C12.3686 8.73328 11.2834 9.18281 10.4832 9.98296C9.68305 10.7831 9.23353 11.8684 9.23353 13C9.23353 14.1315 9.68305 15.2168 10.4832 16.0169C11.2834 16.8171 12.3686 17.2666 13.5002 17.2666C14.6318 17.2666 15.717 16.8171 16.5172 16.0169C17.3173 15.2168 17.7669 14.1315 17.7669 13C17.7669 11.8684 17.3173 10.7831 16.5172 9.98296C15.717 9.18281 14.6318 8.73328 13.5002 8.73328Z" fill="#1F1F1F"/>
</svg>
