<svg width="25" height="24" viewBox="0 0 25 24" fill="none" xmlns="http://www.w3.org/2000/svg">
<path d="M3.16667 0C1.69333 0 0.5 1.19333 0.5 2.66667V21.3333C0.5 22.8067 1.69333 24 3.16667 24H21.8333C23.3067 24 24.5 22.8067 24.5 21.3333V2.66667C24.5 1.19333 23.3067 0 21.8333 0H3.16667ZM3.16667 2.66667H21.8333V21.3333H3.16667V2.66667ZM12.2214 7.8099C11.4347 7.80323 10.768 7.8134 10.3906 7.9974C10.14 8.12006 9.94644 8.39546 10.0651 8.41146C10.2104 8.43013 10.5388 8.49958 10.7161 8.73958C10.9415 9.04758 10.9349 9.73958 10.9349 9.73958C10.9349 9.73958 11.0635 11.6429 10.6302 11.8802C10.3329 12.0429 9.92548 11.7126 9.04948 10.1979C8.60015 9.42058 8.26302 8.5625 8.26302 8.5625C8.26302 8.5625 8.19673 8.40044 8.08073 8.3151C7.93806 8.2111 7.73958 8.17708 7.73958 8.17708L5.64583 8.1875C5.64583 8.1875 5.32954 8.18819 5.21354 8.32552C5.11088 8.44819 5.20573 8.6901 5.20573 8.6901C5.20573 8.6901 6.84706 12.5158 8.70573 14.4531C10.4111 16.2291 12.3437 16.0677 12.3437 16.0677H13.2214C13.2214 16.0677 13.4877 16.0828 13.6224 15.9375C13.7464 15.8028 13.7422 15.5937 13.7422 15.5937C13.7422 15.5937 13.7255 14.4155 14.2708 14.2422C14.8095 14.0715 15.4998 15.3801 16.2318 15.8828C16.7838 16.2641 17.2057 16.1823 17.2057 16.1823L19.1641 16.1563C19.1641 16.1563 20.1871 16.0919 19.7057 15.2813C19.6657 15.2146 19.4233 14.6844 18.25 13.5937C17.0207 12.4524 17.1854 12.6361 18.6641 10.6615C19.5654 9.46012 19.9258 8.72613 19.8125 8.41146C19.7045 8.11013 19.0417 8.1901 19.0417 8.1901L16.8385 8.20312C16.8385 8.20312 16.6734 8.17927 16.5521 8.2526C16.4334 8.3246 16.3568 8.48958 16.3568 8.48958C16.3568 8.48958 16.0083 9.42154 15.5417 10.2135C14.5617 11.8842 14.1691 11.9712 14.0078 11.8672C13.6345 11.6272 13.7292 10.8989 13.7292 10.3802C13.7292 8.76154 13.9727 8.08613 13.25 7.91146C13.01 7.85279 12.8347 7.81656 12.2214 7.8099Z" fill="#1F1F1F"/>
</svg>
